<?xml version="1.0" standalone="no"?>
<!DOCTYPE svg PUBLIC "-//W3C//DTD SVG 20010904//EN"
 "http://www.w3.org/TR/2001/REC-SVG-20010904/DTD/svg10.dtd">
<svg version="1.0" xmlns="http://www.w3.org/2000/svg"
 width="720.000000pt" height="1280.000000pt" viewBox="0 0 720.000000 1280.000000"
 preserveAspectRatio="xMidYMid meet">

<g transform="translate(0.000000,1280.000000) scale(0.100000,-0.100000)"
fill="#000000" stroke="none">
<path d="M3160 7292 c-227 -59 -353 -274 -337 -572 13 -220 81 -357 214 -427
208 -110 463 -42 546 146 27 60 28 167 3 239 -24 72 -96 143 -173 172 -167 63
-371 15 -453 -107 l-25 -37 -3 65 c-9 183 65 342 190 405 91 46 245 51 342 10
22 -9 40 -15 41 -14 8 9 35 69 35 76 0 13 -68 41 -129 52 -78 15 -177 11 -251
-8z m215 -532 c186 -90 159 -358 -41 -416 -104 -30 -224 -6 -293 59 -132 125
-69 330 116 377 58 14 168 4 218 -20z"/>
<path d="M4490 7295 c-104 -30 -183 -94 -220 -179 -60 -138 -12 -309 107 -384
73 -46 118 -57 228 -56 88 0 107 3 163 28 43 20 79 46 114 85 l51 56 -6 -105
c-7 -123 -25 -190 -70 -256 -68 -102 -168 -148 -317 -147 -61 1 -101 7 -139
22 -30 11 -56 20 -57 18 -8 -10 -34 -68 -34 -76 0 -5 26 -20 58 -32 47 -19 77
-23 177 -23 172 -1 265 34 360 135 194 207 176 685 -32 844 -96 73 -262 103
-383 70z m238 -95 c91 -28 162 -120 162 -210 0 -131 -113 -224 -275 -225 -69
0 -88 4 -140 30 -42 21 -69 43 -90 73 -27 39 -30 52 -30 120 0 88 20 132 82
179 67 51 185 64 291 33z"/>
<path d="M2110 7255 l0 -45 120 0 120 0 0 -480 0 -480 55 0 55 0 0 525 0 525
-175 0 -175 0 0 -45z"/>
<path d="M3893 7040 c-73 -30 -44 -150 37 -150 80 0 109 109 39 145 -32 17
-44 18 -76 5z"/>
<path d="M3875 6375 c-61 -60 5 -158 84 -125 29 12 51 46 51 81 0 31 -44 69
-80 69 -19 0 -40 -9 -55 -25z"/>
</g>
</svg>
