<?xml version="1.0" standalone="no"?>
<!DOCTYPE svg PUBLIC "-//W3C//DTD SVG 20010904//EN"
 "http://www.w3.org/TR/2001/REC-SVG-20010904/DTD/svg10.dtd">
<svg version="1.0" xmlns="http://www.w3.org/2000/svg"
 width="1000.000000pt" height="1000.000000pt" viewBox="0 0 1000.000000 1000.000000"
 preserveAspectRatio="xMidYMid meet">

<g transform="translate(0.000000,1000.000000) scale(0.100000,-0.100000)"
fill="#000000" stroke="none">
<path d="M4790 5550 l0 -230 -40 44 c-24 25 -66 55 -103 72 -55 25 -73 29
-157 28 -74 0 -108 -5 -152 -23 -207 -81 -300 -359 -192 -573 49 -97 133 -165
239 -193 148 -38 288 1 379 106 l36 43 0 -77 0 -77 50 0 50 0 0 555 0 555 -55
0 -55 0 0 -230z m-174 -195 c58 -24 108 -70 139 -127 40 -73 47 -205 16 -288
-76 -202 -345 -249 -488 -86 -22 25 -47 68 -56 97 -19 58 -22 155 -6 214 24
91 115 183 204 204 50 13 144 6 191 -14z"/>
<path d="M7620 5550 l0 -230 -40 44 c-24 25 -66 55 -103 72 -55 25 -73 29
-157 28 -74 0 -108 -5 -152 -23 -207 -81 -300 -359 -192 -573 49 -97 133 -165
239 -193 148 -38 288 1 379 106 l36 43 0 -77 0 -77 50 0 50 0 0 555 0 555 -55
0 -55 0 0 -230z m-174 -195 c58 -24 108 -70 139 -127 40 -73 47 -205 16 -288
-76 -202 -345 -249 -488 -86 -22 25 -47 68 -56 97 -19 58 -22 155 -6 214 24
91 115 183 204 204 50 13 144 6 191 -14z"/>
<path d="M1313 5455 c-76 -21 -129 -50 -178 -100 -176 -175 -141 -509 66 -632
166 -99 373 -79 497 47 17 19 32 37 32 42 0 4 -16 18 -36 32 l-36 24 -36 -35
c-77 -77 -212 -99 -320 -53 -180 78 -233 347 -97 498 62 69 120 95 215 96 88
1 154 -24 205 -78 l32 -35 37 25 c20 14 36 28 36 32 0 4 -13 21 -28 38 -89 98
-246 137 -389 99z"/>
<path d="M3334 5456 c-61 -14 -177 -67 -189 -86 -6 -9 30 -80 41 -80 2 0 21
11 42 25 114 75 295 83 374 17 42 -35 68 -96 68 -159 l0 -53 -158 0 c-233 0
-327 -31 -372 -124 -39 -82 -20 -207 41 -263 53 -48 117 -68 224 -68 90 0 106
3 157 28 31 15 68 41 82 58 14 16 27 29 30 29 3 0 6 -25 6 -55 l0 -55 51 0 51
0 -4 293 c-3 279 -5 294 -26 343 -47 104 -129 153 -270 160 -54 2 -110 -2
-148 -10z m336 -481 c0 -104 -39 -163 -135 -206 -100 -45 -247 -22 -291 46
-24 37 -29 106 -11 142 36 69 81 82 280 83 l157 0 0 -65z"/>
<path d="M5607 5459 c-61 -14 -112 -45 -156 -95 l-41 -47 0 72 0 71 -50 0 -50
0 0 -395 0 -395 54 0 55 0 3 258 3 257 30 55 c41 74 93 109 184 123 l71 11 0
48 c0 48 0 48 -32 47 -18 -1 -50 -5 -71 -10z"/>
<path d="M6164 5456 c-61 -14 -177 -67 -189 -86 -6 -9 30 -80 41 -80 2 0 21
11 42 25 114 75 295 83 374 17 42 -35 68 -96 68 -159 l0 -53 -158 0 c-233 0
-327 -31 -372 -124 -39 -82 -20 -207 41 -263 53 -48 117 -68 224 -68 90 0 106
3 157 28 31 15 68 41 82 58 14 16 27 29 30 29 3 0 6 -25 6 -55 l0 -55 51 0 51
0 -4 293 c-3 279 -5 294 -26 343 -47 104 -129 153 -270 160 -54 2 -110 -2
-148 -10z m336 -481 c0 -104 -39 -163 -135 -206 -100 -45 -247 -22 -291 46
-24 37 -29 106 -11 142 36 69 81 82 280 83 l157 0 0 -65z"/>
<path d="M8294 5456 c-61 -14 -177 -67 -189 -86 -6 -9 30 -80 41 -80 2 0 21
11 42 25 114 75 295 83 374 17 42 -35 68 -96 68 -159 l0 -53 -158 0 c-233 0
-327 -31 -372 -124 -39 -82 -20 -207 41 -263 53 -48 117 -68 224 -68 90 0 106
3 157 28 31 15 68 41 82 58 14 16 27 29 30 29 3 0 6 -25 6 -55 l0 -55 51 0 51
0 -4 293 c-3 279 -5 294 -26 343 -47 104 -129 153 -270 160 -54 2 -110 -2
-148 -10z m336 -481 c0 -104 -39 -163 -135 -206 -100 -45 -247 -22 -291 46
-24 37 -29 106 -11 142 36 69 81 82 280 83 l157 0 0 -65z"/>
<path d="M2050 5205 c0 -141 5 -276 11 -303 14 -69 66 -151 115 -184 91 -61
248 -74 351 -28 26 11 69 42 96 68 l47 46 0 -67 0 -67 50 0 50 0 0 395 0 395
-54 0 -55 0 -3 -262 c-3 -247 -4 -265 -25 -303 -50 -93 -124 -136 -237 -136
-106 0 -170 34 -213 112 -16 30 -18 64 -21 312 l-3 277 -55 0 -54 0 0 -255z"/>
</g>
</svg>
