<?xml version="1.0" standalone="no"?>
<!DOCTYPE svg PUBLIC "-//W3C//DTD SVG 20010904//EN"
 "http://www.w3.org/TR/2001/REC-SVG-20010904/DTD/svg10.dtd">
<svg version="1.0" xmlns="http://www.w3.org/2000/svg"
 width="22677.000000pt" height="12756.000000pt" viewBox="0 0 22677.000000 12756.000000"
 preserveAspectRatio="xMidYMid meet">

<g transform="translate(0.000000,12756.000000) scale(0.100000,-0.100000)"
fill="#000000" stroke="none">
<path d="M92490 73359 c-1737 -86 -3001 -735 -3566 -1833 -160 -312 -255 -627
-300 -997 -20 -164 -23 -543 -5 -709 96 -883 497 -1511 1278 -2001 277 -174
728 -377 1163 -523 377 -126 690 -211 1720 -465 1026 -254 1471 -398 1899
-612 647 -324 987 -728 1085 -1289 23 -131 31 -371 17 -505 -60 -556 -334
-1002 -811 -1320 -487 -324 -1108 -498 -1950 -546 -770 -44 -1591 67 -2330
314 -708 236 -1371 610 -1802 1016 -46 43 -83 70 -88 65 -4 -5 -115 -218 -245
-474 l-237 -465 90 -85 c544 -518 1388 -945 2352 -1191 929 -237 1928 -299
2885 -178 1217 153 2168 612 2742 1324 254 314 461 744 547 1135 143 651 70
1370 -194 1905 -330 668 -969 1157 -1990 1522 -415 148 -754 244 -1695 478
-864 215 -1090 277 -1430 390 -638 213 -1047 435 -1340 730 -313 315 -465 692
-465 1158 -1 885 547 1569 1516 1892 416 140 858 208 1424 222 1096 26 2219
-280 3193 -869 82 -49 152 -86 157 -81 16 18 410 964 405 973 -3 5 -58 42
-123 83 -361 229 -757 417 -1184 562 -870 297 -1770 421 -2718 374z"/>
<path d="M120250 73359 c-1737 -86 -3001 -735 -3566 -1833 -160 -312 -255
-627 -300 -997 -20 -164 -23 -543 -5 -709 96 -883 497 -1511 1278 -2001 277
-174 728 -377 1163 -523 377 -126 690 -211 1720 -465 1026 -254 1471 -398
1899 -612 647 -324 987 -728 1085 -1289 23 -131 31 -371 17 -505 -60 -556
-334 -1002 -811 -1320 -487 -324 -1108 -498 -1950 -546 -770 -44 -1591 67
-2330 314 -708 236 -1371 610 -1802 1016 -46 43 -83 70 -88 65 -4 -5 -115
-218 -245 -474 l-237 -465 90 -85 c544 -518 1388 -945 2352 -1191 929 -237
1928 -299 2885 -178 1217 153 2168 612 2742 1324 254 314 461 744 547 1135
143 651 70 1370 -194 1905 -330 668 -969 1157 -1990 1522 -415 148 -754 244
-1695 478 -864 215 -1090 277 -1430 390 -638 213 -1047 435 -1340 730 -313
315 -465 692 -465 1158 -1 885 547 1569 1516 1892 416 140 858 208 1424 222
1096 26 2219 -280 3193 -869 82 -49 152 -86 157 -81 16 18 410 964 405 973 -3
5 -58 42 -123 83 -361 229 -757 417 -1184 562 -870 297 -1770 421 -2718 374z"/>
<path d="M58050 67435 l0 -5835 615 0 615 0 0 2475 0 2475 3015 0 3015 0 0
535 0 535 -3015 0 -3015 0 0 2290 0 2290 3385 0 3385 0 0 535 0 535 -4000 0
-4000 0 0 -5835z"/>
<path d="M69850 67435 l0 -5835 615 0 615 0 0 5835 0 5835 -615 0 -615 0 0
-5835z"/>
<path d="M76140 67435 l0 -5835 615 0 615 0 0 1850 0 1850 1668 0 c1646 0
1914 4 2241 35 85 8 157 13 160 10 4 -2 605 -845 1336 -1874 l1330 -1870 674
-1 673 0 -16 26 c-10 14 -647 909 -1417 1990 -769 1081 -1400 1969 -1402 1975
-1 6 52 30 118 53 473 169 880 391 1232 672 129 104 374 344 476 468 551 665
827 1492 827 2481 0 962 -255 1762 -776 2435 -116 150 -396 432 -554 556 -645
511 -1463 828 -2455 953 -468 59 -560 61 -3067 61 l-2278 0 0 -5835z m4958
4742 c792 -89 1340 -263 1802 -572 547 -365 883 -851 1046 -1510 91 -369 118
-857 69 -1260 -63 -527 -251 -999 -545 -1370 -78 -99 -259 -279 -363 -364
-479 -387 -1141 -632 -1937 -716 -309 -32 -488 -35 -2137 -35 l-1663 0 0 2925
0 2926 1793 -4 c1568 -3 1810 -6 1935 -20z"/>
<path d="M98940 72735 l0 -535 2050 0 2050 0 0 -5300 0 -5300 615 0 615 0 0
5300 0 5300 2050 0 2050 0 0 535 0 535 -4715 0 -4715 0 0 -535z"/>
<path d="M128700 67435 l0 -5835 3880 0 3880 0 0 535 0 535 -3265 0 -3265 0 0
5300 0 5300 -615 0 -615 0 0 -5835z"/>
<path d="M139770 67435 l0 -5835 615 0 615 0 0 5835 0 5835 -615 0 -615 0 0
-5835z"/>
<path d="M146050 67435 l0 -5836 2608 4 c2824 4 2670 1 3132 57 1295 158 2408
620 3320 1378 155 129 513 488 640 642 764 923 1179 1981 1282 3265 7 88 12
309 12 490 0 350 -10 532 -49 840 -127 1003 -483 1908 -1052 2671 -156 209
-291 363 -502 575 -435 434 -866 745 -1426 1029 -674 342 -1406 558 -2225 659
-463 57 -325 55 -3142 58 l-2598 4 0 -5836z m5315 4742 c524 -57 900 -136
1325 -277 1682 -558 2788 -1852 3074 -3595 50 -304 61 -461 61 -870 0 -409
-11 -566 -61 -870 -317 -1932 -1645 -3308 -3619 -3748 -163 -37 -388 -76 -550
-97 -353 -45 -284 -44 -2352 -47 l-1963 -4 0 4766 0 4766 1963 -4 c1777 -3
1977 -5 2122 -20z"/>
<path d="M161070 67435 l0 -5835 4125 0 4125 0 0 535 0 535 -3510 0 -3510 0 0
2165 0 2165 3015 0 3015 0 0 525 0 525 -3015 0 -3015 0 0 2075 0 2075 3385 0
3385 0 0 535 0 535 -4000 0 -4000 0 0 -5835z"/>
</g>
</svg>
