<?xml version="1.0" standalone="no"?>
<!DOCTYPE svg PUBLIC "-//W3C//DTD SVG 20010904//EN"
 "http://www.w3.org/TR/2001/REC-SVG-20010904/DTD/svg10.dtd">
<svg version="1.0" xmlns="http://www.w3.org/2000/svg"
 width="22677.000000pt" height="12756.000000pt" viewBox="0 0 22677.000000 12756.000000"
 preserveAspectRatio="xMidYMid meet">

<g transform="translate(0.000000,12756.000000) scale(0.100000,-0.100000)"
fill="#000000" stroke="none">
<path d="M78110 82949 c-1674 -100 -2885 -718 -3469 -1773 -313 -566 -421
-1266 -305 -1973 121 -738 507 -1312 1174 -1748 383 -250 852 -457 1466 -645
297 -91 621 -177 1364 -361 948 -235 1329 -346 1712 -500 822 -330 1261 -764
1388 -1369 80 -385 28 -817 -140 -1165 -103 -214 -291 -447 -489 -607 -451
-365 -1138 -591 -1966 -647 -821 -56 -1550 26 -2321 260 -752 227 -1475 623
-1956 1068 l-76 71 -175 -342 c-96 -189 -205 -403 -242 -477 l-67 -134 64 -64
c136 -139 348 -308 558 -446 856 -561 2032 -919 3275 -997 320 -20 852 -11
1195 21 1304 120 2323 574 2947 1314 212 250 390 567 500 889 198 580 203
1302 13 1876 -283 857 -956 1432 -2185 1864 -377 132 -728 230 -1583 442 -342
85 -716 179 -830 210 -848 226 -1345 431 -1757 722 -44 32 -143 120 -221 197
-201 200 -303 360 -385 605 -160 479 -92 1076 172 1515 71 118 148 215 263
334 230 235 516 415 883 554 556 212 1334 303 2093 246 903 -68 1855 -378
2644 -861 71 -43 133 -80 137 -81 7 -2 414 939 422 975 1 5 -60 49 -135 97
-821 525 -1923 859 -3073 931 -184 11 -696 11 -895 -1z"/>
<path d="M103595 82949 c-1418 -93 -2657 -577 -3675 -1437 -158 -133 -493
-469 -630 -632 -779 -926 -1224 -2011 -1347 -3285 -24 -254 -24 -886 0 -1140
123 -1276 569 -2363 1345 -3285 136 -161 491 -516 652 -652 1003 -845 2236
-1324 3644 -1417 202 -14 674 -14 881 -1 879 56 1663 256 2370 605 502 248
947 567 1333 954 l144 144 -396 396 -395 395 -133 -130 c-711 -697 -1609
-1114 -2655 -1234 -1195 -136 -2380 107 -3334 686 -329 199 -591 406 -875 689
-322 321 -554 626 -775 1021 -627 1117 -777 2541 -404 3829 288 993 896 1859
1733 2465 389 281 871 527 1331 677 682 222 1400 300 2166 237 1109 -92 2039
-500 2821 -1239 l131 -123 394 394 394 395 -180 177 c-100 97 -239 225 -311
284 -893 731 -2027 1147 -3354 1228 -188 11 -696 11 -875 -1z"/>
<path d="M116580 82949 c-916 -65 -1711 -274 -2460 -645 -444 -219 -806 -455
-1185 -770 -167 -139 -540 -512 -679 -679 -749 -900 -1196 -1968 -1320 -3155
-101 -960 18 -1954 336 -2808 232 -625 553 -1179 984 -1697 139 -167 512 -540
679 -679 1026 -852 2254 -1326 3670 -1416 207 -13 655 -13 865 0 1409 90 2655
575 3670 1430 273 230 637 617 856 910 555 743 918 1601 1073 2540 61 371 81
625 81 1045 0 407 -19 666 -76 1014 -302 1873 -1423 3409 -3104 4252 -704 353
-1443 559 -2310 645 -193 19 -882 28 -1080 13z m890 -1110 c1065 -86 1997
-456 2783 -1107 124 -102 398 -372 514 -506 528 -613 884 -1348 1047 -2166 71
-353 99 -647 99 -1035 0 -388 -28 -682 -99 -1035 -186 -932 -618 -1751 -1265
-2399 -374 -374 -775 -659 -1254 -892 -361 -175 -708 -296 -1082 -378 -1055
-231 -2163 -146 -3137 239 -189 75 -523 239 -691 340 -1006 605 -1736 1558
-2062 2690 -185 646 -243 1344 -167 2025 222 2000 1577 3568 3515 4069 365 94
753 152 1154 170 120 5 503 -3 645 -15z"/>
<path d="M86630 77025 l0 -5835 4125 0 4125 0 0 535 0 535 -3505 0 -3505 0 0
2165 0 2165 3015 0 3015 0 0 525 0 525 -3015 0 -3015 0 0 2075 0 2075 3380 0
3380 0 0 535 0 535 -4000 0 -4000 0 0 -5835z"/>
<path d="M127180 77025 l0 -5835 620 0 620 0 2 4724 3 4724 3740 -4723 3740
-4724 513 0 512 -1 0 5835 0 5835 -610 0 -610 0 -2 -4728 -3 -4727 -3753 4727
-3753 4728 -510 0 -509 0 0 -5835z"/>
<path d="M141980 77025 l0 -5835 2528 0 c2516 0 2671 2 3017 35 1957 190 3552
1079 4510 2515 628 942 944 2040 945 3280 1 1913 -765 3525 -2182 4596 -968
730 -2198 1152 -3602 1234 -115 6 -1068 10 -2697 10 l-2519 0 0 -5835z m5045
4755 c948 -52 1795 -288 2512 -701 859 -495 1514 -1252 1876 -2169 143 -363
234 -708 291 -1112 41 -288 50 -426 50 -773 0 -347 -9 -485 -50 -773 -178
-1252 -777 -2286 -1738 -2999 -788 -585 -1778 -917 -2930 -983 -109 -6 -887
-10 -1997 -10 l-1819 0 0 4765 0 4765 1813 0 c1048 0 1888 -5 1992 -10z"/>
<path d="M90910 62949 c-1674 -100 -2885 -718 -3469 -1773 -313 -566 -421
-1266 -305 -1973 121 -738 507 -1312 1174 -1748 383 -250 852 -457 1466 -645
297 -91 621 -177 1364 -361 948 -235 1329 -346 1712 -500 822 -330 1261 -764
1388 -1369 80 -385 28 -817 -140 -1165 -103 -214 -291 -447 -489 -607 -451
-365 -1138 -591 -1966 -647 -821 -56 -1550 26 -2321 260 -752 227 -1475 623
-1956 1068 l-76 71 -175 -342 c-96 -189 -205 -403 -242 -477 l-67 -134 64 -64
c136 -139 348 -308 558 -446 856 -561 2032 -919 3275 -997 320 -20 852 -11
1195 21 1304 120 2323 574 2947 1314 212 250 390 567 500 889 198 580 203
1302 13 1876 -283 857 -956 1432 -2185 1864 -377 132 -728 230 -1583 442 -342
85 -716 179 -830 210 -848 226 -1345 431 -1757 722 -44 32 -143 120 -221 197
-201 200 -303 360 -385 605 -160 479 -92 1076 172 1515 71 118 148 215 263
334 230 235 516 415 883 554 556 212 1334 303 2093 246 903 -68 1855 -378
2644 -861 71 -43 133 -80 137 -81 7 -2 414 939 422 975 1 5 -60 49 -135 97
-821 525 -1923 859 -3073 931 -184 11 -696 11 -895 -1z"/>
<path d="M99430 57025 l0 -5835 3885 0 3885 0 0 535 0 535 -3265 0 -3265 0 0
5300 0 5300 -620 0 -620 0 0 -5835z"/>
<path d="M110490 57025 l0 -5835 620 0 620 0 0 5835 0 5835 -620 0 -620 0 0
-5835z"/>
<path d="M116780 57025 l0 -5835 2528 0 c2516 0 2671 2 3017 35 1957 190 3552
1079 4510 2515 628 942 944 2040 945 3280 1 1913 -765 3525 -2182 4596 -968
730 -2198 1152 -3602 1234 -115 6 -1068 10 -2697 10 l-2519 0 0 -5835z m5045
4755 c948 -52 1795 -288 2512 -701 859 -495 1514 -1252 1876 -2169 143 -363
234 -708 291 -1112 41 -288 50 -426 50 -773 0 -347 -9 -485 -50 -773 -178
-1252 -777 -2286 -1738 -2999 -788 -585 -1778 -917 -2930 -983 -109 -6 -887
-10 -1997 -10 l-1819 0 0 4765 0 4765 1813 0 c1048 0 1888 -5 1992 -10z"/>
<path d="M131790 57025 l0 -5835 4125 0 4125 0 0 535 0 535 -3505 0 -3505 0 0
2165 0 2165 3015 0 3015 0 0 525 0 525 -3015 0 -3015 0 0 2075 0 2075 3380 0
3380 0 0 535 0 535 -4000 0 -4000 0 0 -5835z"/>
</g>
</svg>
